<svg width="20" height="4" viewBox="0 0 20 4" fill="none" xmlns="http://www.w3.org/2000/svg">
<path d="M3 0.277C2.69728 0.0972764 2.35205 0.00164871 2 0C1.46957 0 0.960859 0.210714 0.585786 0.585787C0.210714 0.96086 0 1.46957 0 2C0 2.53043 0.210714 3.03914 0.585786 3.41421C0.960859 3.78929 1.46957 4 2 4C2.366 4 2.705 3.894 3 3.722C3.595 3.376 4 2.738 4 2C4 1.261 3.595 0.623 3 0.277ZM11 0.277C10.6973 0.0972764 10.3521 0.00164871 10 0C9.634 0 9.295 0.105 9 0.277C8.405 0.623 8 1.261 8 2C8 2.738 8.405 3.376 9 3.722C9.295 3.894 9.634 4 10 4C10.366 4 10.705 3.894 11 3.722C11.595 3.376 12 2.738 12 2C12 1.261 11.595 0.623 11 0.277ZM18 0C17.634 0 17.295 0.106 17 0.277C16.405 0.624 16 1.262 16 2C16 2.738 16.405 3.376 17 3.723C17.295 3.894 17.634 4 18 4C18.5304 4 19.0391 3.78929 19.4142 3.41421C19.7893 3.03914 20 2.53043 20 2C20 1.46957 19.7893 0.96086 19.4142 0.585787C19.0391 0.210714 18.5304 0 18 0Z" fill="#3E3A39"/>
</svg>
